/* XPM */
static char *BA1638793815[] = {
/* columns rows colors chars-per-pixel */
"45 35 126 2 ",
"   c None",
".  c #EB1B23",
"X  c #E91B26",
"o  c #E91C24",
"O  c #E91C25",
"+  c #EA1C24",
"@  c #EB1C24",
"#  c #EA1C25",
"$  c #EB1C25",
"%  c #EB1D25",
"&  c #E91D26",
"*  c #EB1C26",
"=  c #EA1D26",
"-  c #EB1D26",
";  c #EA1C27",
":  c #EA1E26",
">  c #EA1F27",
",  c #EC1C24",
"<  c #EC1D26",
"1  c #E61E29",
"2  c #E81D28",
"3  c #E81E28",
"4  c #E91E28",
"5  c #E81E29",
"6  c #E91F2A",
"7  c #DA263C",
"8  c #DF293A",
"9  c #DE2D3D",
"0  c #DD2C3E",
"q  c #EC2027",
"w  c #E7202B",
"e  c #E2202E",
"r  c #E4222D",
"t  c #E7222C",
"y  c #E6222D",
"u  c #E4202E",
"i  c #E6212E",
"p  c #E7242E",
"a  c #EB2028",
"s  c #EA2129",
"d  c #E8202A",
"f  c #E9202A",
"g  c #E8212A",
"h  c #E8212C",
"j  c #E9212C",
"k  c #E9232E",
"l  c #EA252D",
"z  c #E9242E",
"x  c #E9252F",
"c  c #EA252E",
"v  c #E32330",
"b  c #E32331",
"n  c #E12533",
"m  c #E32532",
"M  c #E62431",
"N  c #E62531",
"B  c #E22635",
"V  c #E12636",
"C  c #E02737",
"Z  c #E82631",
"A  c #E32835",
"S  c #E22836",
"D  c #E32837",
"F  c #E32A37",
"G  c #E42835",
"H  c #E42935",
"J  c #E52836",
"K  c #E42936",
"L  c #E42837",
"P  c #E72A37",
"I  c #E62B37",
"U  c #E92932",
"Y  c #E82934",
"T  c #E92B34",
"R  c #E82C36",
"E  c #EB2E36",
"W  c #EA2F37",
"Q  c #E22939",
"!  c #E22A39",
"~  c #E32B39",
"^  c #E0293A",
"/  c #E62B38",
"(  c #E32D3A",
")  c #E42F3A",
"_  c #E22F3D",
"`  c #E32F3E",
"'  c #E5303E",
"]  c #E5313E",
"[  c #E8343F",
"{  c #E8363F",
"}  c #CD2F4C",
"|  c #D22C45",
" . c #D42D46",
".. c #DC2F41",
"X. c #DE2E40",
"o. c #DC2F43",
"O. c #D92F45",
"+. c #DB3043",
"@. c #DD3142",
"#. c #D3334D",
"$. c #D3344E",
"%. c #DA364D",
"&. c #DF3A4B",
"*. c #DE3A4C",
"=. c #C42F54",
"-. c #CC3050",
";. c #C33358",
":. c #C73758",
">. c #E13141",
",. c #E13342",
"<. c #E63341",
"1. c #E43440",
"2. c #E73440",
"3. c #EA3641",
"4. c #E73B45",
"5. c #E83843",
"6. c #E93C47",
"7. c #E13848",
"8. c #E33A48",
"9. c #E0394A",
"0. c #E33A4A",
"q. c #E53C49",
"w. c #E53D4A",
"e. c #E7414D",
"r. c #E14152",
"t. c #E84854",
/* pixels */
"                                                                                          ",
"                                                                                          ",
"                                                                                          ",
"                                                                                          ",
"                                                                                          ",
"                                                                    *.                    ",
"                                                      _             q.                    ",
"                                                    @.                                    ",
"                  K                                                                       ",
"                    >.Q O.                          9             S                       ",
"                            ]                       K                                     ",
"                              @.|                   Q         ~ (                         ",
"              <.Q C K Q 0.        m                 7.      K G                           ",
"          N - . @ @ , , , a 9       8 @.            =.      N                             ",
"      [ - . , , , , , , , , - K         e.        } 4 4 g - 4 <.          $.K X.3.        ",
"      - - , , , , , , , , , , . W         T U r . - , , , , . - - r X.  1 - . . - 4       ",
"    K , , , , , , , , , , , , , - , z z q . , , , , , , , , , , , , 4 5.- - , , , . 6.    ",
"    1 . , , , , , , , , , , , , . , , , , . , , , , , , , , , , , , , , , , , - , , W     ",
"    C . , , , , , , , , , , , , - - K m z - . - , . , , , , , , , , g 3.. . - . - . [     ",
"      - , , , @ , , , , , , , 4 ]         W q.z g - , , , , . - a h     m . . - . U       ",
"        4 , , - , , , , , , , )                     r h g h z                 $.t.        ",
"          z 4 - , , @ - < r -.      K                       r                             ",
"                  #.#.          C C                 7.        h                           ",
"                              T                     Q           ~                         ",
"                                                    T                                     ",
"                     .7                             7.            C                       ",
"                  >.                                %.              *.                    ",
"                                                    ;.:.                                  ",
"                                                      ,.            4.                    ",
"                                                                    r.                    ",
"                                                                                          ",
"                                                                                          ",
"                                                                                          ",
"                                                                                          ",
"                                                                                          "
};
