/* XPM */
static char *BB1638793815[] = {
/* columns rows colors chars-per-pixel */
"45 27 186 2 ",
"   c None",
".  c #E91B25",
"X  c #EC1B24",
"o  c #E91C25",
"O  c #EA1C24",
"+  c #EB1C24",
"@  c #EA1C25",
"#  c #EB1C25",
"$  c #EA1D25",
"%  c #EB1D25",
"&  c #E91D26",
"*  c #E81D27",
"=  c #EA1C26",
"-  c #EA1D26",
";  c #EB1D26",
":  c #EA1D27",
">  c #E81E26",
",  c #EA1E26",
"<  c #EB1E26",
"1  c #EA1F27",
"2  c #EB1F27",
"3  c #EC1C24",
"4  c #EC1D26",
"5  c #E71D29",
"6  c #E61F2B",
"7  c #E81D28",
"8  c #E81E28",
"9  c #E91E28",
"0  c #E91F29",
"q  c #EA1E28",
"w  c #E91F2A",
"e  c #DC293B",
"r  c #DE2B3C",
"t  c #DD2C3D",
"y  c #DE2E3E",
"u  c #EB2027",
"i  c #E2202E",
"p  c #E5212C",
"a  c #E7212C",
"s  c #E6222E",
"d  c #E6242E",
"f  c #E7242F",
"g  c #E7252F",
"h  c #EA2029",
"j  c #EB2029",
"k  c #EB2229",
"l  c #E8202A",
"z  c #E9212A",
"x  c #E9212B",
"c  c #E9222B",
"v  c #EA222A",
"b  c #EB222A",
"n  c #EA222B",
"m  c #EA232B",
"M  c #EB232B",
"N  c #EC222A",
"B  c #EC232B",
"V  c #E9202C",
"C  c #E8212C",
"Z  c #E9212C",
"A  c #E9222C",
"S  c #E9232C",
"D  c #E8222D",
"F  c #E8232D",
"G  c #EB232C",
"H  c #E8232E",
"J  c #E8232F",
"K  c #EC232C",
"L  c #EA242D",
"P  c #EB252D",
"I  c #E8242F",
"U  c #EA242E",
"Y  c #EC252D",
"T  c #EC272E",
"R  c #EB282F",
"E  c #E12230",
"W  c #E32331",
"Q  c #E42330",
"!  c #E72430",
"~  c #E62530",
"^  c #E72530",
"/  c #E62531",
"(  c #E72531",
")  c #E62631",
"_  c #E72731",
"`  c #E42432",
"'  c #E42532",
"]  c #E52632",
"[  c #E52633",
"{  c #E62732",
"}  c #E72732",
"|  c #E02534",
" . c #E22534",
".. c #E22735",
"X. c #E42734",
"o. c #E52635",
"O. c #E92730",
"+. c #E82631",
"@. c #EB2730",
"#. c #E82733",
"$. c #E72832",
"%. c #E32937",
"&. c #E42835",
"*. c #E52835",
"=. c #E72834",
"-. c #E42936",
";. c #E42A37",
":. c #E52B37",
">. c #E72C37",
",. c #E92931",
"<. c #EA2831",
"1. c #EA2931",
"2. c #E92832",
"3. c #EA2932",
"4. c #EA2933",
"5. c #EA2A32",
"6. c #EA2A33",
"7. c #EB2B33",
"8. c #E82934",
"9. c #E92A34",
"0. c #E82B34",
"q. c #E82C35",
"w. c #EB2C34",
"e. c #EA2D35",
"r. c #E92D36",
"t. c #EA2C36",
"y. c #EB2F37",
"u. c #ED2C35",
"i. c #EC2D35",
"p. c #E22838",
"a. c #E22939",
"s. c #E42D39",
"d. c #E72E38",
"f. c #E52F3B",
"g. c #E12D3D",
"h. c #E02F3F",
"j. c #E82E38",
"k. c #E92F3A",
"l. c #EC3037",
"z. c #E5303D",
"x. c #E6323D",
"c. c #E5333F",
"v. c #E6333F",
"b. c #EB3038",
"n. c #EA323A",
"m. c #EB333A",
"M. c #EC3038",
"N. c #E8303C",
"B. c #E8353F",
"V. c #EA353E",
"C. c #EB363F",
"Z. c #DC2D40",
"A. c #CE324E",
"S. c #DC3143",
"D. c #DE3343",
"F. c #DA3044",
"G. c #DB3044",
"H. c #DD3446",
"J. c #D1314A",
"K. c #D0304B",
"L. c #D3324B",
"P. c #D73149",
"I. c #D1314C",
"U. c #DE384A",
"Y. c #D03550",
"T. c #D23B53",
"R. c #E03041",
"E. c #E23241",
"W. c #E03242",
"Q. c #E33242",
"!. c #E63642",
"~. c #E53944",
"^. c #E73C46",
"/. c #EA3A43",
"(. c #E93A46",
"). c #EB3C45",
"_. c #E53F4D",
"`. c #CB415E",
"'. c #E8454E",
"]. c #E94D57",
"[. c #EC4D56",
"{. c #E14959",
"}. c #E74D59",
"|. c #E64E5A",
" X c #EA4F58",
".X c #E8535D",
/* pixels */
"                                                                                          ",
"                                                                  '.                      ",
"                                                                ;.                        ",
"                                                              6.}.                        ",
"                      N.>.g.                            w.9.U  X                          ",
"    S.6.'.                  i J W ` #.w.            y w.s.                                ",
"          6.J w.w.| ` 6.` ;.        F.q V.        J .X                                    ",
"              a.y 9.      s.1 X.      l T       U l.                                      ",
"                          [.1 X q R.I.q 1 c.    1       !.U 6.U p U l l l B J s.          ",
"                      Z.1 3 X X O 3 O 3 3 4 D.w.1 %.  $.1 X 3 3 O 4 1.v.A.$.1 1 4 /.      ",
"                  j.1 1 3 3 3 3 3 3 3 3 3 3 4 l l Q J X 3 3 3 3 N           %.u.U.1 m.    ",
"                #.1 X X 3 3 3 3 3 3 3 3 3 O l       L.X 3 3 3 O u.                ).v.    ",
"                H.e f #.l O 3 3 3 3 3 3 X N         I.3 3 3 3 3 l                         ",
"                    P.N.` 1 3 3 3 3 3 3 X T         I.O 3 3 3 3 l                         ",
"                :.1 X O 3 3 3 3 3 3 3 3 3 O w.      I.O 3 3 3 3 1.                        ",
"                  ` X X 3 3 3 3 3 3 3 3 3 X 1 p V.).l.3 3 3 3 O #.          r   `.# 6.    ",
"                    a.J 1 4 3 O 3 3 3 3 3 3 l.T X l 6.u 4 4 3 3 1 N l.    }.q 1 l 6.      ",
"                          W O 1 5 ` U 4 3 `     1       l q 1 1 4 q 1 # 1 1 1 f 9.        ",
"                            4 5       l T       1  X                                      ",
"          ` :.l l ` ` E U J R.        J C.      g.U                                       ",
"      ).X.{.                T.#.E p N l           N.6.Y.                                  ",
"                        ~.:.S.9.                      R.X.` U                             ",
"                      x.                                    c.R                           ",
"                                                                9.                        ",
"                                                                  Q.                      ",
"                                                                                          ",
"                                                                                          "
};
