/* XPM */
static char *BG1638793815[] = {
/* columns rows colors chars-per-pixel */
"45 27 246 2 ",
"   c None",
".  c #E91B24",
"X  c #EB1B25",
"o  c #E91C25",
"O  c #EA1C24",
"+  c #EB1C24",
"@  c #EB1D24",
"#  c #EA1C25",
"$  c #EA1D25",
"%  c #EB1D25",
"&  c #E91E25",
"*  c #EB1E25",
"=  c #E91C26",
"-  c #EA1C26",
";  c #EB1C26",
":  c #EB1D26",
">  c #EA1D27",
",  c #EB1D27",
"<  c #E91E27",
"1  c #EB1E26",
"2  c #EB1E27",
"3  c #EA1F27",
"4  c #EB1F27",
"5  c #EC1C24",
"6  c #EC1F26",
"7  c #E71E28",
"8  c #E71E29",
"9  c #E91D28",
"0  c #E81D29",
"q  c #E91E28",
"w  c #E91F28",
"e  c #E81E29",
"r  c #E81F29",
"t  c #E91F29",
"y  c #EA1E28",
"u  c #EA1F28",
"i  c #E91F2A",
"p  c #DD2436",
"a  c #DF2C3D",
"s  c #DE2D3E",
"d  c #EB2027",
"f  c #E7212B",
"g  c #E3202D",
"h  c #E7212C",
"j  c #E7232D",
"k  c #E5222F",
"l  c #E5232F",
"z  c #E4242F",
"x  c #E6242F",
"c  c #E92028",
"v  c #E82029",
"b  c #E92029",
"n  c #EB2128",
"m  c #EA2029",
"M  c #EB2029",
"N  c #E9212A",
"B  c #E8212B",
"V  c #E9212B",
"C  c #EA212A",
"Z  c #EA212B",
"A  c #E8222B",
"S  c #EA222A",
"D  c #EB222A",
"F  c #EA232B",
"G  c #EC2028",
"H  c #EC2128",
"J  c #EA242B",
"K  c #E8222C",
"L  c #E9222C",
"P  c #E9232C",
"I  c #EA232C",
"U  c #EB232D",
"Y  c #E9242D",
"T  c #EA242C",
"R  c #EA252D",
"E  c #EB252D",
"W  c #EB262D",
"Q  c #E9242E",
"!  c #E8252E",
"~  c #E9252F",
"^  c #EA242E",
"/  c #EB272F",
"(  c #EC242D",
")  c #E22331",
"_  c #E32331",
"`  c #E02332",
"'  c #E42331",
"]  c #E42430",
"[  c #E52430",
"{  c #E52530",
"}  c #E42431",
"|  c #E52431",
" . c #E52531",
".. c #E72430",
"X. c #E72530",
"o. c #E42532",
"O. c #E62432",
"+. c #E42632",
"@. c #E42633",
"#. c #E52633",
"$. c #E62633",
"%. c #E32736",
"&. c #E82531",
"*. c #E82630",
"=. c #E92730",
"-. c #E82631",
";. c #E92631",
":. c #EA2630",
">. c #E62832",
",. c #E72933",
"<. c #E32A37",
"1. c #E52934",
"2. c #E62A34",
"3. c #E72B34",
"4. c #E52836",
"5. c #E42936",
"6. c #E72936",
"7. c #E42A37",
"8. c #E72A36",
"9. c #E62A37",
"0. c #E62B37",
"q. c #E92831",
"w. c #EA2931",
"e. c #E82832",
"r. c #E92832",
"t. c #EA2932",
"y. c #E92A32",
"u. c #EC2C33",
"i. c #E82934",
"p. c #E92A34",
"a. c #E82B35",
"s. c #EA2B34",
"d. c #EB2D35",
"f. c #E82C37",
"g. c #E82E37",
"h. c #EA2E36",
"j. c #E12938",
"k. c #E02839",
"l. c #E32A39",
"z. c #E22B39",
"x. c #E12A3A",
"c. c #E02A3B",
"v. c #E62B38",
"b. c #E32C3B",
"n. c #E42D38",
"m. c #E62D39",
"M. c #E42E3B",
"N. c #E02F3D",
"B. c #E42F3D",
"V. c #E92D38",
"C. c #E82E38",
"Z. c #E92F39",
"A. c #E92F3A",
"S. c #E1303F",
"D. c #E5303C",
"F. c #E6303C",
"G. c #E6333D",
"H. c #E5343F",
"J. c #EB3039",
"K. c #EA3139",
"L. c #EA353D",
"P. c #E9363F",
"I. c #BA2D58",
"U. c #D62D45",
"Y. c #DA2C42",
"T. c #DB2E42",
"R. c #DF3142",
"E. c #D93146",
"W. c #DC3044",
"Q. c #DD3447",
"!. c #DD3547",
"~. c #DF3747",
"^. c #D53048",
"/. c #D53148",
"(. c #D5364F",
"). c #DA3448",
"_. c #DD384A",
"`. c #DF394A",
"'. c #DF3A4B",
"]. c #DB394E",
"[. c #DC3C4F",
"{. c #C73152",
"}. c #CF3450",
"|. c #CD3452",
" X c #CB3755",
".X c #CD3856",
"XX c #CF3C57",
"oX c #CB3C5C",
"OX c #D23651",
"+X c #E33340",
"@X c #E03243",
"#X c #E63340",
"$X c #E63741",
"%X c #E23644",
"&X c #E23745",
"*X c #E03746",
"=X c #E53744",
"-X c #E43746",
";X c #E93440",
":X c #EA3640",
">X c #E83642",
",X c #E73842",
"<X c #E73843",
"1X c #E13846",
"2X c #E33946",
"3X c #E53944",
"4X c #E73944",
"5X c #E63845",
"6X c #E73A45",
"7X c #E53846",
"8X c #E53947",
"9X c #E93943",
"0X c #ED3840",
"qX c #E13948",
"wX c #E33A49",
"eX c #E33D4A",
"rX c #E43C48",
"tX c #E53C48",
"yX c #E63F4A",
"uX c #E03B4C",
"iX c #E13B4C",
"pX c #E43D4C",
"aX c #E83D49",
"sX c #DD4355",
"dX c #DF4454",
"fX c #DF4657",
"gX c #D1415C",
"hX c #D9475D",
"jX c #DE485A",
"kX c #E5424E",
"lX c #E9404A",
"zX c #E9414A",
"xX c #E44250",
"cX c #E44351",
"vX c #E44352",
"bX c #E44652",
"nX c #E24A59",
"mX c #E64B58",
"MX c #E64F5C",
"NX c #E7505C",
"BX c #D24B65",
"VX c #D54F67",
"CX c #DC5C6F",
"ZX c #D55971",
"AX c #E75662",
"SX c #EA5D65",
/* pixels */
"                                                                                          ",
"                                                                                          ",
"                                      N.MX        pX                                      ",
"                                        n.A.G.H.K.+ b             [.bX                    ",
"                        @XaX                        b 4.              dXbX    L.          ",
"                    A.^ 5 X y I j e.w.e.a.a.yX        + K.                m./ 5 0X        ",
"                yXx.4XJ.J b E E ( D 5 = X 5 5 . ;.pX  gX5 uX              XX+ ^ D         ",
"  N.p p } e.j a.I.                  x.= X 5 5 5 5 + }   6Xy               j } 4X1Xw.  =X  ",
"    ZX*XT.uX                            n.5 5 5 5 5 5 ;.mXd d           ' ;.      4.^     ",
"                                      W.d 5 5 5 5 5 5 + d + 5 + a.    g }                 ",
"                              wXm.b y 5 P.5 5 5 5 5 5 5 5 5 + I + b + @ b                 ",
"                        zX} + + + + 5 5   e.+ + + 5 5 5 5 5 + *X} ).y 5 5 5 b.E.          ",
"                     Xb 5 5 5 5 5 + 1X^     VXOXa d.4.b 8 + + ^ J ~.@ 5 5 5 + x           ",
"                    b + 5 5 5 5 5 y   _                   hXb 5 ^ a @ . 5 5 5 _           ",
"                    4.+ 5 5 5 5 + y   b             |.x.1.^ + + ^ T.+ 5 5 5 5 ^           ",
"                      6X^ + 5 5 + + I b   4.f 8 + + + + + + + wX_ /.+ 5 + + ^ e.          ",
"                            G.} 8 + 5 + 9XI = 5 5 5 5 5 5 5 + 1Xf m.= + b x.  !.          ",
"                                  ].<.b D + 5 5 5 5 + + + 5 5 + b d.D.+ e.                ",
"                                        a.5 5 5 5 5 5 + x.y + L.      ,X+ G.      {.#X    ",
"  a _ b D b } `.                      1.y 5 5 5 5 5 + @XdXy :X          +X+ |.    ^ W.yX  ",
"            OX4.v.6X    `.^.`.vX6X:X8 + + 5 + + 5 #.    _ d.              4.+ K.A.$X      ",
"                    _ y @ 5 + + = = + + = j j U.      4.;.                zX+ + u.        ",
"                      kX} e.:XoX                    @.b                 cXAXNX^           ",
"                                          @X6XCXSX@.y .X            nX                    ",
"                                      9Xd.    BXa g =X          jX                        ",
"                                      dX                                                  ",
"                                                                                          "
};
