/* XPM */
static char *BL1638793815[] = {
/* columns rows colors chars-per-pixel */
"45 35 160 2 ",
"   c None",
".  c #E71D27",
"X  c #EC1B24",
"o  c #EA1C24",
"O  c #EB1C24",
"+  c #EA1D24",
"@  c #EA1C25",
"#  c #EB1C25",
"$  c #EA1D25",
"%  c #EB1D25",
"&  c #EB1E25",
"*  c #E91C27",
"=  c #E81D27",
"-  c #EB1D26",
";  c #EA1D27",
":  c #E91F27",
">  c #EA1E26",
",  c #EA1E27",
"<  c #EA1F27",
"1  c #EC1C24",
"2  c #EC1E27",
"3  c #E61E29",
"4  c #E51E2B",
"5  c #E71E2A",
"6  c #E61F2A",
"7  c #E71F2A",
"8  c #E81D28",
"9  c #E91D28",
"0  c #E81E28",
"q  c #E81E29",
"w  c #E91E29",
"e  c #EA1F28",
"r  c #EB1F28",
"t  c #EA1F29",
"y  c #E81F2A",
"u  c #DC2537",
"i  c #DF2737",
"p  c #DF2839",
"a  c #DD283A",
"s  c #DE2B3C",
"d  c #DF2E3F",
"f  c #EC2027",
"g  c #E5202B",
"h  c #E7202A",
"j  c #E7212B",
"k  c #E3202E",
"l  c #E5202C",
"z  c #E7202C",
"x  c #E6212C",
"c  c #E6222D",
"v  c #E7222D",
"b  c #E7232D",
"n  c #E5202E",
"m  c #E7222E",
"M  c #E6232E",
"N  c #E7232F",
"B  c #E5252F",
"V  c #E7242E",
"C  c #E82029",
"Z  c #EA2028",
"A  c #EB2028",
"S  c #EA2029",
"D  c #EA2129",
"F  c #E8202A",
"G  c #E9202A",
"H  c #E8212A",
"J  c #E8202B",
"K  c #EA202A",
"L  c #EA222B",
"P  c #EC2129",
"I  c #EC212A",
"U  c #E9212D",
"Y  c #E8222C",
"T  c #E9222C",
"R  c #EA222C",
"E  c #E8232E",
"W  c #EC232C",
"Q  c #EB252C",
"!  c #EB252D",
"~  c #EA262E",
"^  c #EB272F",
"/  c #EC262D",
"(  c #EC262E",
")  c #E42330",
"_  c #E22533",
"`  c #E42431",
"'  c #E62430",
"]  c #E62531",
"[  c #E72531",
"{  c #E72630",
"}  c #E22534",
"|  c #E12736",
" . c #E02637",
".. c #E72934",
"X. c #E72935",
"o. c #E72B35",
"O. c #E42A37",
"+. c #E52A37",
"@. c #E52B37",
"#. c #E62B37",
"$. c #E92933",
"%. c #EB2A33",
"&. c #EC2C33",
"*. c #EB2F37",
"=. c #EC2D34",
"-. c #EC2C35",
";. c #E02738",
":. c #E22B39",
">. c #E32D3B",
",. c #E32E3B",
"<. c #E42F3B",
"1. c #E52F3C",
"2. c #E82F38",
"3. c #E82E39",
"4. c #E92F39",
"5. c #E5303B",
"6. c #E7303A",
"7. c #E3303F",
"8. c #E3323F",
"9. c #E5303D",
"0. c #E83039",
"q. c #E8313B",
"w. c #EB313B",
"e. c #E9333C",
"r. c #E8333F",
"t. c #EB343C",
"y. c #EC383F",
"u. c #DE2F40",
"i. c #DD3345",
"p. c #DC3346",
"a. c #DF3445",
"s. c #C12E55",
"d. c #C63256",
"f. c #C63456",
"g. c #C93152",
"h. c #DD3D50",
"j. c #DE3D50",
"k. c #E13041",
"l. c #E03141",
"z. c #E53240",
"x. c #E73440",
"c. c #E53543",
"v. c #E73742",
"b. c #E63743",
"n. c #E03344",
"m. c #E33544",
"M. c #E13746",
"N. c #E43644",
"B. c #E93741",
"V. c #EA3740",
"C. c #E73A44",
"Z. c #EB3B42",
"A. c #E93C46",
"S. c #E13848",
"D. c #C33F63",
"F. c #DD4558",
"G. c #EA464E",
"H. c #E64350",
"J. c #E84B54",
"K. c #E9515B",
/* pixels */
"                                                                                          ",
"                        j.                                                                ",
"                          F.                                                              ",
"                                                                                          ",
"    N.                              v.                                                    ",
"        <.                            k.                                                  ",
"                z.                    s                                           m.      ",
"                    ,.                i                                         d.v.      ",
"                      p.            j.x                                       m.C.        ",
"                        t [ 4 t t o o o o G k ] 0.                        %.@.            ",
"                    m.G o 1 1 1 X X 1 1 1 1 1 1 1 1 U V D.            i.y.                ",
"                =.h 1 1 1 1 1 1 1 1 1 1 1 o X U [ 1 1 1 o t.        _ t.                  ",
"              =.@ X 1 1 o t o 1 1 1 1 1 1 t J.      6 1 1 G     0.U o                     ",
"            G o 1 1 1 o 0.    x o 1 1 1 1 5         u 1 1 P   ..o 1 1 =.                  ",
"          x o 1 1 1 1 [         6 1 1 1 1 o t.    s.t o 1 1 ( o 1 1 1 1 (                 ",
"        3.o 1 1 1 1 1 x         o 1 1 1 1 o o o t o o 1 1 1 1 1 1 1 1 1 1 1 G [ K.B.      ",
"        G 1 1 1 1 1 1 O G _ U t o 1 1 1 1 1 1 1 1 1 1 1 1 1 1 1 1 1 1 1 1 1 1 1 f         ",
"        G 1 1 1 1 1 1 1 o 1 o X o 1 1 1 1 1 1 1 1 1 1 1 1 1 1 1 1 1 1 1 1 1 1 X P         ",
"        G 1 1 1 1 1 1 O o t t o 1 1 1 1 1 1 1 1 1 1 1 1 1 1 1 1 1 1 1 1 1 1 1 @ 2         ",
"        @.o 1 1 1 1 O Z g.    8.o 1 1 1 1 1 1 1 o 1 1 1 1 1 1 1 1 1 1 1 o 1 t %.A.5.      ",
"          G 1 1 1 1 1 @.        x 1 1 1 1 o ( 0.@.] o 1 1 o W 1 1 1 1 o (                 ",
"            U 1 1 1 X 6         t 1 1 1 X (         x 1 1 P   ;.o 1 1 0.                  ",
"              ] O 1 1 1 o ~ h o @ X 1 1 1 G         ] 1 1 P     d t o                     ",
"                5.G 1 1 1 1 1 1 @ X 1 1 1 O G 5.Z.U o o 1 3.        ;.v.                  ",
"                    | o 1 1 1 1 1 1 1 1 1 X 1 1 o O t ~ @.            ,.G.                ",
"                        o ( G G o o o o o t U ~ 3.                        ,.@.            ",
"                      m.f.          m.x                                       V v.        ",
"                    v.                p                                         k.Z.      ",
"                                      s                                           i.      ",
"                                      k.                                                  ",
"    H.                                                                                    ",
"                                                                                          ",
"                                                                                          ",
"                                                                                          ",
"                                                                                          "
};
