/* XPM */
static char *BM1638793815[] = {
/* columns rows colors chars-per-pixel */
"45 32 173 2 ",
"   c None",
".  c #AE2329",
"X  c #EB1C24",
"o  c #EA1D25",
"O  c #EB1D25",
"+  c #E81E26",
"@  c #E91F26",
"#  c #E91F27",
"$  c #EA1E26",
"%  c #EB1E26",
"&  c #EC1C24",
"*  c #E81F28",
"=  c #EA1F28",
"-  c #D92128",
";  c #D8242A",
":  c #DF3139",
">  c #DE333A",
",  c #DF333A",
"<  c #DF363D",
"1  c #DA3A3F",
"2  c #E72129",
"3  c #E5222A",
"4  c #E7232B",
"5  c #E6242B",
"6  c #E7232C",
"7  c #E3262E",
"8  c #E4242C",
"9  c #E7262E",
"0  c #E7272F",
"q  c #E82028",
"w  c #E92028",
"e  c #E82129",
"r  c #E92129",
"t  c #EA2028",
"y  c #EA2128",
"u  c #EA2129",
"i  c #EA2229",
"p  c #E9222A",
"a  c #E8232B",
"s  c #E9232B",
"d  c #EA232A",
"f  c #E8252B",
"g  c #E8232C",
"h  c #E9242D",
"j  c #EA252C",
"k  c #EA272D",
"l  c #EB272E",
"z  c #E5282F",
"x  c #E8282E",
"c  c #EB282F",
"v  c #E52A31",
"b  c #E62A30",
"n  c #E62A31",
"m  c #E72B33",
"M  c #E62C32",
"N  c #E12D34",
"B  c #E22C34",
"V  c #E22D35",
"C  c #E02E34",
"Z  c #E72E35",
"A  c #E82A31",
"S  c #EB2A32",
"D  c #E92C32",
"F  c #E33137",
"G  c #E43037",
"H  c #E23138",
"J  c #E0333A",
"K  c #E53139",
"L  c #E6353D",
"P  c #E6363D",
"I  c #E7363D",
"U  c #EB333B",
"Y  c #E13A3F",
"T  c #D73E44",
"R  c #DA3A40",
"E  c #DC3B41",
"W  c #DE3A42",
"Q  c #DF3D42",
"!  c #DE3D43",
"~  c #D83D44",
"^  c #DF3D45",
"/  c #DE3F44",
"(  c #DF3F44",
")  c #E23940",
"_  c #E03A41",
"`  c #E03B41",
"'  c #E33A40",
"]  c #E33A41",
"[  c #E43840",
"{  c #E63A41",
"}  c #E33C43",
"|  c #E43C43",
" . c #E03E45",
".. c #E53D44",
"X. c #E43F45",
"o. c #E93A41",
"O. c #E83F44",
"+. c #EB3E44",
"@. c #CF474C",
"#. c #CC484D",
"$. c #CE4A4F",
"%. c #DB4047",
"&. c #DD4046",
"*. c #DF4146",
"=. c #DF4147",
"-. c #DC4247",
";. c #DA4248",
":. c #DA4349",
">. c #DB434A",
",. c #DF4349",
"<. c #DF444B",
"1. c #DE454B",
"2. c #D8464D",
"3. c #DD454C",
"4. c #DE454C",
"5. c #DF464C",
"6. c #DF474D",
"7. c #DD474E",
"8. c #DB484D",
"9. c #DC484D",
"0. c #DE484E",
"q. c #CD4B50",
"w. c #D24C51",
"e. c #D64D52",
"r. c #D74F54",
"t. c #DD4A50",
"y. c #D84C51",
"u. c #DA4D53",
"i. c #DB4D53",
"p. c #DE4C51",
"a. c #DD4E53",
"s. c #DE4E53",
"d. c #CC5357",
"f. c #CF545A",
"g. c #CF565C",
"h. c #D05156",
"j. c #D65056",
"k. c #D05457",
"l. c #D85157",
"z. c #DB5156",
"x. c #DC5156",
"c. c #D7555B",
"v. c #DD5258",
"b. c #DE5258",
"n. c #DD5458",
"m. c #D9565C",
"M. c #D5585C",
"N. c #D55A5F",
"B. c #DB595E",
"V. c #E04045",
"C. c #E24047",
"Z. c #E74147",
"A. c #E34148",
"S. c #E04248",
"D. c #E14248",
"F. c #E04349",
"G. c #E34449",
"H. c #E0454B",
"J. c #E1454B",
"K. c #E2444B",
"L. c #E6454B",
"P. c #E4474E",
"I. c #E84249",
"U. c #E2494E",
"Y. c #E04E52",
"T. c #E14E53",
"R. c #E34F56",
"E. c #E65257",
"W. c #E1585C",
"Q. c #E1595E",
"!. c #DA5F63",
"~. c #D36468",
"^. c #E86267",
/* pixels */
"                                                                                          ",
"                                                      U D                                 ",
"                              R.                    ` o & <                               ",
"                              N.                    l & & C                               ",
"                                a.                  r & & `                               ",
"                                  2.              ^.o & =                                 ",
"                                    V.            I.& & r                                 ",
"                                      L.&.        o.& & D                                 ",
"                                          0.,.    L & & M                                 ",
"      Q.                                      X.1.v & &  .              0.                ",
"          a.r.                                    r & o #.        U.n.                    ",
"              k.,.~.                l.S.&.g.      [ & o       Q.                          ",
"                    S.Q     q.R 1 ~ h.    B.[     +.X +     E.                            ",
"                        w.Q                   L.t.a.o 2 :.                                ",
"                                                  7.= : / ~                               ",
"                                  . ; - l r l 9 Z } 7 r l & g C J !.                      ",
"                                    c r g t r g S K 2 2 2 o r D C S.m.                    ",
"                                                  L.9 : Q C                               ",
"                          q.                  k.H.:.o r E @.                              ",
"                    K./ e.d.X.Y E 7.        S.    I.o o     S.                            ",
"                b.L.                K.| A.&.      I & o       T.                          ",
"          l.b.                                    z & & l.      &.7.                      ",
"        i.                                    O.` r & & J             V.0.                ",
"                                          y.`     c & & v               c.                ",
"                                        L         J & & z                 b.              ",
"                                    7.1.          G & & r                   y.            ",
"                                  T.              &.o & o                     N.          ",
"                                H.                  o & & [                               ",
"                                                    = & & v                               ",
"                              L.                    G & & 9                               ",
"                                                      5 r                                 ",
"                                                                                          "
};
