/* XPM */
static char *BP1638793815[] = {
/* columns rows colors chars-per-pixel */
"45 31 63 1 ",
"  c None",
". c #CD1B21",
"X c #D61D25",
"o c #DB1D24",
"O c #E31D24",
"+ c #DE2C33",
"@ c #D4363C",
"# c #DC343B",
"$ c #D4393F",
"% c #DE383E",
"& c #E82027",
"* c #E5252C",
"= c #E8242B",
"- c #E5292F",
"; c #E32D34",
": c #E92C34",
"> c #E33037",
", c #E23339",
"< c #E1393F",
"1 c #D53C42",
"2 c #DC3C43",
"3 c #E33C42",
"4 c #B54C51",
"5 c #BB4C51",
"6 c #B95054",
"7 c #B65458",
"8 c #BE5458",
"9 c #CC454A",
"0 c #C6494E",
"q c #C8484E",
"w c #D44146",
"e c #DD4147",
"r c #D44449",
"t c #DB454B",
"y c #D5494E",
"u c #DC494E",
"i c #C24C51",
"p c #CC4D52",
"a c #D44D52",
"s c #DB4C52",
"d c #C45155",
"f c #CA5155",
"g c #C25358",
"h c #CE5559",
"j c #CC5B5F",
"k c #D55256",
"l c #DC5156",
"z c #D4565A",
"x c #D9565A",
"c c #D2595D",
"v c #DB595D",
"b c #E44147",
"n c #E3444B",
"m c #E4494F",
"M c #E9494F",
"N c #E24C52",
"B c #E94850",
"V c #E0545A",
"C c #CE5D62",
"Z c #D65D62",
"A c #DB5D62",
"S c #D46063",
"D c #DE686C",
/* pixels */
"                                             ",
"                                         v   ",
"                                         N   ",
"                                          r  ",
"              >     <    Zt               %  ",
"         N    -t    ;3    =C   3i         b  ",
"         =n  s<>ey a#*9tSa#%q f-t         Bd ",
"      :A ,O;:%   u   t  xr  nqu:1         kp ",
"    g @&<o       t       s   z  Besab:2   sp ",
"    -+;  .    w  l       t   9   w  3%    sf ",
"    rO O  O   #      a   t   9   r   t    bp ",
" e l*o    O   ;   7  s   u   y   y   y2v  ,d ",
" 3*+O      O  %   4  B   m   r   u   s DC >  ",
"  ;OX      +  N   5  3   r   t   t   9  ;:e  ",
"  ,        #  s   5  <   r   t   w   q x-n   ",
"  ,OX X    #  s   5  3   w   t   2   9  w    ",
"  2Oo     O@  s   5  3   r   t   @   q  $    ",
" 2=#O    OO>  u   4  B   t   t   $   9 x&a   ",
" s  +O    O   ,   6  B   B   t   2   y  ,:N  ",
"    >&    O   ;      B   N   t   e   u v  ,  ",
"   hf ;O      #  S   B   t   r   s   c2   3  ",
"      #&-O    w  s   m   N   9       v    s8 ",
"      %sC-O  #   l   N   N   9   2Ca:s    vf ",
"        s,N  3@><v  3s  tu  uq nutC  >    xf ",
"              :3 l a=2kk 1#> pw-          md ",
"              s    b2     wa   %          3  ",
"                                          u  ",
"                                         t   ",
"                                        Zj   ",
"                                        l    ",
"                                             "
};
