/* XPM */
static char *BQ1638782292[] = {
/* columns rows colors chars-per-pixel */
"44 29 189 2 ",
"   c None",
".  c #EB1B23",
"X  c #EA1C23",
"o  c #EB1C23",
"O  c #E91B24",
"+  c #E91C25",
"@  c #EA1C24",
"#  c #EB1C24",
"$  c #EA1D25",
"%  c #EB1D25",
"&  c #EA1E25",
"*  c #EB1E25",
"=  c #E91C26",
"-  c #E91D26",
";  c #E91C27",
":  c #E91D27",
">  c #EB1C26",
",  c #EB1D26",
"<  c #EA1D27",
"1  c #E91E26",
"2  c #E91E27",
"3  c #E91F27",
"4  c #EA1E26",
"5  c #EB1E26",
"6  c #EA1E27",
"7  c #EB1E27",
"8  c #EB1F27",
"9  c #EC1C24",
"0  c #EC1C25",
"q  c #EC1E26",
"w  c #EC1E27",
"e  c #EC1F27",
"r  c #E61E29",
"t  c #E51F2D",
"y  c #E71F2C",
"u  c #E91D28",
"i  c #EA1F28",
"p  c #EB1F28",
"a  c #E91F2A",
"s  c #DF2333",
"d  c #DE283B",
"f  c #DF2C3C",
"g  c #DF2C3E",
"h  c #DE2C3F",
"j  c #EB2027",
"k  c #EC2027",
"l  c #EC2127",
"z  c #E7202A",
"x  c #E3212E",
"c  c #E3212F",
"v  c #E5202E",
"b  c #E5222E",
"n  c #E82029",
"m  c #EA2029",
"M  c #EB2029",
"N  c #EB2329",
"B  c #E9202A",
"V  c #E8202B",
"C  c #EA212B",
"Z  c #E9222B",
"A  c #EA222B",
"S  c #EB232B",
"D  c #EC2128",
"F  c #EC2229",
"G  c #EA242B",
"H  c #E8222C",
"J  c #E8232C",
"K  c #E9232D",
"L  c #E9232E",
"P  c #E9242D",
"I  c #EA242D",
"U  c #EA252D",
"Y  c #EB252D",
"T  c #E9252E",
"R  c #E9242F",
"E  c #E8252F",
"W  c #EA252E",
"Q  c #EB252E",
"!  c #E9272F",
"~  c #EB272F",
"^  c #EC262E",
"/  c #EA282F",
"(  c #EC282F",
")  c #E02031",
"_  c #E22230",
"`  c #E22433",
"'  c #E52531",
"]  c #E62631",
"[  c #E72631",
"{  c #E62731",
"}  c #E42532",
"|  c #E02536",
" . c #E12736",
".. c #E52734",
"X. c #E62734",
"o. c #E82630",
"O. c #EB2630",
"+. c #EA2730",
"@. c #EB2730",
"#. c #E72833",
"$. c #E02837",
"%. c #E32836",
"&. c #E32937",
"*. c #E52834",
"=. c #E62834",
"-. c #E62935",
";. c #E82831",
":. c #EA2830",
">. c #EA2831",
",. c #EB2931",
"<. c #E82832",
"1. c #E92832",
"2. c #EB2A32",
"3. c #EC2A32",
"4. c #EC2B33",
"5. c #E92934",
"6. c #E92A34",
"7. c #E92A35",
"8. c #E92B35",
"9. c #EB2A34",
"0. c #EA2A35",
"q. c #E92C35",
"w. c #E82D37",
"e. c #EB2D36",
"r. c #E12838",
"t. c #E32A38",
"y. c #E32C3A",
"u. c #E62C39",
"i. c #E72E38",
"p. c #E52F3B",
"a. c #E82D38",
"s. c #E6313B",
"d. c #E3323F",
"f. c #E5303C",
"g. c #E5313E",
"h. c #E6303E",
"j. c #E5323E",
"k. c #E6323F",
"l. c #E6343E",
"z. c #E93038",
"x. c #E9303A",
"c. c #E8303B",
"v. c #EB333B",
"b. c #ED333A",
"n. c #E9323C",
"m. c #E8333D",
"M. c #E9333D",
"N. c #EA323C",
"B. c #E9343E",
"V. c #E9363F",
"C. c #EB373E",
"Z. c #EB373F",
"A. c #D62E46",
"S. c #DB2F44",
"D. c #DC3043",
"F. c #D5354D",
"G. c #DC384B",
"H. c #C93758",
"J. c #DB3D51",
"K. c #E02F40",
"L. c #E13040",
"P. c #E33040",
"I. c #E33240",
"U. c #E23342",
"Y. c #E43240",
"T. c #E43241",
"R. c #E53441",
"E. c #E43543",
"W. c #E93741",
"Q. c #E83742",
"!. c #E33845",
"~. c #EA3840",
"^. c #E83944",
"/. c #EB3D47",
"(. c #E33B4A",
"). c #E63B48",
"_. c #E43C49",
"`. c #E23D4D",
"'. c #E23E4C",
"]. c #E23F4E",
"[. c #DC4356",
"{. c #D94358",
"}. c #E34151",
"|. c #E54A58",
" X c #E14D5D",
".X c #ED565D",
"XX c #EF5D62",
"oX c #EB5A64",
"OX c #EF5D64",
/* pixels */
"                                                                                        ",
"                                                                                        ",
"                                                                                        ",
"                        ).            ~.        ].           X                          ",
"                          *.W.          / [ :.*.          u.R.                          ",
"                            :.        oX9 8 9 M           C                             ",
"                            Y         . 9 9 9 8 Y       w.s.                            ",
"  /.8 8 8 8 8 F 5.            5.    OX8 9 9 9 9 M     b.}           B.^ 9 8 o 8 k 3.    ",
"  Y 8 . 9 9 9 9 9 9 M N.        C o.M # 9 9 9 9 9 w.C *.      OX^ 9 8 9 9 9 > . . > ].  ",
"    8 . 9 . 9 9 9 9 9 o 8 Y z.  G.8 8 8 c s _ M 8 9 t.  }.:.M 8 9 9 . 9 9 9 # . . b     ",
"    P.> . > > . 9 9 9 9 9 9 . 8 b # r           s.8 r 9 o 9 9 9 9 9 . . 9 9 9 8 9       ",
"      s.8 9 . . 9 9 9 9 9 . . 9 # # s.I.Y Y S 4.t.C 8 . 9 9 9 9 9 9 9 . 9 9 9 M         ",
"          u.a 8 9 9 9 9 9 9 9 9 > . . 8 9 9 9 9 . . 9 9 9 9 9 9 9 9 9 8 8 Y N.          ",
"              C 8 9 9 9 9 9 9 . . 8 . . 9 . 9 9 . 8 8 8 9 9 9 9 9 9 9 o [               ",
"                Y 8 . . 9 9 9 8 d S.8 . > . # # # [ D.` O 8 9 9 9 9 a s.                ",
"                    [ a a b g   g M 8 . . . > # # 8 ..t.A.` M k a K.                    ",
"                            ).5.    M 9 > . 9 9 9 Y   W.&.                              ",
"                          l.E.    !.9 8 > > 9 9 t &.      4.                            ",
"                          *.      8 (.  :._ s `   t.o.      5.                          ",
"                        5.      3.8 z.            Y # p.    J.R.                        ",
"                      u.      {.9 F o.          .X8 o.^         ^.                      ",
"                    ].        C   ~.Y C Y 3.o.C 8 M   B.w.                              ",
"                            3.      F.` 8 . 9 8 I.K.    s.Z.                            ",
"                          z.Z.      P.    d f     s.      w.                            ",
"                        B.[.        g           |.          I.                          ",
"                                      :.      H.o.                                      ",
"                                      f.M a 8 a                                         ",
"                                          [ E.                                          ",
"                                                                                        "
};
