/* XPM */
static char *BS1638793816[] = {
/* columns rows colors chars-per-pixel */
"45 26 224 2 ",
"   c None",
".  c #DD1C23",
"X  c #DE1D23",
"o  c #D91E25",
"O  c #DC1C24",
"+  c #DE1E25",
"@  c #E11B22",
"#  c #E11B23",
"$  c #E71B23",
"%  c #E31D23",
"&  c #E41C22",
"*  c #E61C23",
"=  c #E51B24",
"-  c #E61B24",
";  c #E11C24",
":  c #E71C24",
">  c #E61D25",
",  c #E51E25",
"<  c #E71E26",
"1  c #EA1B23",
"2  c #E81C23",
"3  c #E91C23",
"4  c #EB1B24",
"5  c #EA1C24",
"6  c #EB1C24",
"7  c #EA1D25",
"8  c #EB1D25",
"9  c #EA1F25",
"0  c #E81E26",
"q  c #E91E26",
"w  c #E91F27",
"e  c #EA1F27",
"r  c #EB1F27",
"t  c #EC1C24",
"y  c #DF2127",
"u  c #DE2A31",
"i  c #DF363D",
"p  c #DE383F",
"a  c #DD3A3F",
"s  c #DE3A3F",
"d  c #EA2027",
"f  c #E62229",
"g  c #E4232A",
"h  c #E6252C",
"j  c #E92028",
"k  c #E92128",
"l  c #E82129",
"z  c #E92129",
"x  c #EA2129",
"c  c #E8222A",
"v  c #E9222A",
"b  c #EA232A",
"n  c #E8242B",
"m  c #E9232C",
"M  c #E9262C",
"N  c #EA272D",
"B  c #E8252E",
"V  c #E8262E",
"C  c #E9262E",
"Z  c #E9272E",
"A  c #E9272F",
"S  c #EA262E",
"D  c #EB262E",
"F  c #E0282F",
"G  c #EA292F",
"H  c #E12930",
"J  c #E32930",
"K  c #E72931",
"L  c #E72A31",
"P  c #E42B32",
"I  c #E52C32",
"U  c #E42C33",
"Y  c #E72C33",
"T  c #E52B34",
"R  c #E12D34",
"E  c #E42C34",
"W  c #E62C34",
"Q  c #E42E34",
"!  c #E52E35",
"~  c #E72E35",
"^  c #E72F36",
"/  c #E92830",
"(  c #E82831",
")  c #E82931",
"_  c #EA2830",
"`  c #E82A32",
"'  c #E92C33",
"]  c #EA2D34",
"[  c #EA2D35",
"{  c #E82F36",
"}  c #E13037",
"|  c #E33137",
" . c #E83037",
".. c #E83237",
"X. c #E2333A",
"o. c #E63138",
"O. c #E63238",
"+. c #E4333A",
"@. c #E1353B",
"#. c #E3343A",
"$. c #E3343B",
"%. c #E4343B",
"&. c #E1363C",
"*. c #E0363D",
"=. c #E5353D",
"-. c #E7343C",
";. c #E6353C",
":. c #E5363C",
">. c #E5373C",
",. c #E4373D",
"<. c #E6363D",
"1. c #E5373F",
"2. c #E6363E",
"3. c #E83239",
"4. c #E8333B",
"5. c #E8353B",
"6. c #E8353C",
"7. c #E5393F",
"8. c #EA393F",
"9. c #D73B41",
"0. c #DD3B40",
"q. c #DF3B40",
"w. c #DE3A41",
"e. c #DE3C42",
"r. c #DB3D44",
"t. c #DB3E44",
"y. c #DA3F44",
"u. c #DE3D44",
"i. c #DE3F44",
"p. c #DF3F46",
"a. c #E13940",
"s. c #E03B41",
"d. c #E13B41",
"f. c #E33B41",
"g. c #E43940",
"h. c #E53940",
"j. c #E03C42",
"k. c #E13D42",
"l. c #E03C43",
"z. c #E03D43",
"x. c #E33C43",
"c. c #E43C43",
"v. c #E63C42",
"b. c #E13D44",
"n. c #E03F45",
"m. c #E23E45",
"M. c #ED3A41",
"N. c #E93C44",
"B. c #C1494E",
"V. c #C94B4F",
"C. c #D74248",
"Z. c #D84248",
"A. c #DC4348",
"S. c #DF4248",
"D. c #DF4349",
"F. c #DD4449",
"G. c #DD454A",
"H. c #DD454B",
"J. c #DB474D",
"K. c #DC474D",
"L. c #DB494E",
"P. c #DB484F",
"I. c #DA494F",
"U. c #DD494F",
"Y. c #C94F54",
"T. c #D64D52",
"R. c #D74D53",
"E. c #DE4B51",
"W. c #D84D52",
"Q. c #D84F55",
"!. c #DA4F54",
"~. c #DD4E55",
"^. c #CD5054",
"/. c #CD5256",
"(. c #CE565B",
"). c #C6595D",
"_. c #D35357",
"`. c #D55054",
"'. c #D65357",
"]. c #DA5056",
"[. c #DB5056",
"{. c #D85257",
"}. c #D75359",
"|. c #D3555B",
" X c #D3565A",
".X c #D3575B",
"XX c #DE535A",
"oX c #DB5458",
"OX c #DD555B",
"+X c #E24147",
"@X c #E64045",
"#X c #E24148",
"$X c #E14248",
"%X c #E04349",
"&X c #E3434A",
"*X c #E54149",
"=X c #E64348",
"-X c #E7434A",
";X c #E34449",
":X c #E0444A",
">X c #E0464C",
",X c #E1464C",
"<X c #E1474C",
"1X c #E2464C",
"2X c #E6474D",
"3X c #EA4249",
"4X c #E8464C",
"5X c #EA474F",
"6X c #E5484D",
"7X c #E14B50",
"8X c #E34B50",
"9X c #E64950",
"0X c #E04D52",
"qX c #E54E54",
"wX c #E35157",
"eX c #E25257",
"rX c #E05A5F",
"tX c #D55A60",
"yX c #D35D61",
"uX c #D35F63",
"iX c #D55E62",
"pX c #CF6366",
"aX c #D66167",
"sX c #D66367",
/* pixels */
"            pX).                                                                          ",
"              sXu.d.Q.                                    >Xk.U.'.                        ",
"                    yXk.y.                          6X%.<.Y.                              ",
"                          3.w.                  Q.3.<.                                    ",
"                            k.)               w.) 0X                                      ",
"    Q.F.7X^.B.V.:Xh.3.] M.    qXD           3XE       k.<.! L J u J u } e.(.              ",
"                        p j !   :X!       }.L     k.n * -                       9.        ",
"                      `.u.g t j F.) 2X    6.E.  ! ,                                       ",
"                  =XG j j t t t t 7 D   0Xh.eXD ,                                         ",
"                m.G #X  2X7 t t t t 7 >X! 0.D #                                           ",
"              #XL       ) t t t t t t 7 7 , 2 # X -                                       ",
"              ) L.    E.7 t t t t t t t t t t 5 +                                         ",
"            -Xj       >Xt t t t t t t t t t t 2                                           ",
"            5Xj       U.t t t t t t t t t t t 5 y                                         ",
"              ) k.    '.t t t t t t t t 5 5 5 5 *                                         ",
"              _.j :X    ..t t t t t 7 D 7 D 5 X                                           ",
"                wXn u E.6Xd t t t t 7 }.! J.) ;                                           ",
"                    X.D d t t 7 f , L     3.sX! 7                                         ",
"                        OXg 7 ] #XJ OX    <.#X  m.d +                                     ",
"                      N.] ) p iXh.<.        G .X  iXL 7 , o                   y.          ",
"    iXm.S.u.-Xy.d.<.X.p W.    k.O.          rXm ].      [.h.<.X.<.X.i S..X                ",
"                            5.X.              ~.D d.                                      ",
"                        5X8.T.                    6.! #X                                  ",
"                    >Xc.^.                            h.O.k.                              ",
"            tXC.m.F.                                        S.Z.F.OX                      ",
"                                                                                          "
};
