/* XPM */
static char *WA1638793816[] = {
/* columns rows colors chars-per-pixel */
"45 35 94 2 ",
"   c None",
".  c #3E47CB",
"X  c #3F47CB",
"o  c #3E47CC",
"O  c #3F47CC",
"+  c #3F48CB",
"@  c #3F49CB",
"#  c #3E48CC",
"$  c #3F48CC",
"%  c #3F49CC",
"&  c #4049CB",
"*  c #4149CB",
"=  c #404ACB",
"-  c #414ACB",
";  c #4049CC",
":  c #404ACC",
">  c #414ACD",
",  c #414BCD",
"<  c #434ACC",
"1  c #424BCC",
"2  c #434BCC",
"3  c #434CCC",
"4  c #424CCD",
"5  c #444DCC",
"6  c #454DCC",
"7  c #444CCD",
"8  c #454CCD",
"9  c #444DCD",
"0  c #454DCD",
"q  c #444ECC",
"w  c #454ECC",
"e  c #444ECD",
"r  c #454ECD",
"t  c #454FCD",
"y  c #464FCD",
"u  c #474FCD",
"i  c #464ECE",
"p  c #474ECE",
"a  c #484FCD",
"s  c #4750CD",
"d  c #4750CE",
"f  c #4751CE",
"g  c #4950CD",
"h  c #4851CD",
"j  c #4951CD",
"k  c #4852CD",
"l  c #4850CE",
"z  c #4950CE",
"x  c #4851CE",
"c  c #4951CE",
"v  c #4851CF",
"b  c #4A51CE",
"n  c #4952CF",
"m  c #4953CF",
"M  c #4A52CE",
"N  c #4A53CE",
"B  c #4B52CF",
"V  c #4A53CF",
"C  c #4B53CF",
"Z  c #4A54CE",
"A  c #4B54CE",
"S  c #4C54CE",
"D  c #4C54CF",
"F  c #4D54CF",
"G  c #4D55CF",
"H  c #4D56CE",
"J  c #4D56CF",
"K  c #4E56CF",
"L  c #4E57CF",
"P  c #4F57CF",
"I  c #4E56D0",
"U  c #4F57D0",
"Y  c #4F58D0",
"T  c #5058D0",
"R  c #5059D0",
"E  c #515AD0",
"W  c #515AD1",
"Q  c #535BD1",
"!  c #545BD1",
"~  c #535CD1",
"^  c #545CD1",
"/  c #555DD1",
"(  c #565ED0",
")  c #565ED1",
"_  c #575FD1",
"`  c #565ED2",
"'  c #585ED1",
"]  c #5962D1",
"[  c #5961D2",
"{  c #5961D3",
"}  c #5B63D3",
"|  c #6168D3",
" . c #6168D5",
".. c #626AD5",
/* pixels */
"                                                                                          ",
"                                                                                          ",
"                                                                                          ",
"                                                                                          ",
"                                                                                          ",
"                                                                    (                     ",
"                                                      J             }                     ",
"                                                    J                                     ",
"                  z                                                                       ",
"                    L z z                           z             u                       ",
"                            Q                       z                                     ",
"                              z z                   z         z A                         ",
"              Q z q z z (         u                 ~       A d                           ",
"          u O + + + O % + , I       d J             d       u                             ",
"      Q + X % O % O % O % % X z         }         z + % , % % Y           J z z |         ",
"      + % % O % O % O % % O % X J         z z 1 X + X O X % % % X , J   + 1 + + + 1       ",
"    u + O % O % % O % O % O % O 1 % 7 u , X X % O % % O % O % O % O % ' % % % O % X }     ",
"    + O % O % O O % O % O % O % X O % O % X % O % O O % O % O % O % + 1 % O O % O % U     ",
"    u X O % O % % O % O % O % O + , z e u 1 X X O O % O O % % O % O u  .X % O O % X !     ",
"      % % O % O O % O % O % O + L         I ( u , X O % % % + + % u     , + + % O u       ",
"        % % O % % % O % X O % J                     1 1 , u u                 U  .        ",
"          u , O X + X O 1 , z       d                       e                             ",
"                  J J           u u                 (         ,                           ",
"                              I                     z           A                         ",
"                                                    z                                     ",
"                    z e                             (             u                       ",
"                  U                                 Q               (                     ",
"                                                    d J                                   ",
"                                                      Y             '                     ",
"                                                                    }                     ",
"                                                                                          ",
"                                                                                          ",
"                                                                                          ",
"                                                                                          ",
"                                                                                          "
};
