/* XPM */
static char *WB1638793816[] = {
/* columns rows colors chars-per-pixel */
"45 27 124 2 ",
"   c None",
".  c #3E47CB",
"X  c #3F47CB",
"o  c #3E47CC",
"O  c #3F48CB",
"+  c #3F49CB",
"@  c #3E48CC",
"#  c #3F48CC",
"$  c #3F49CC",
"%  c #4049CB",
"&  c #4149CB",
"*  c #414ACB",
"=  c #414BCB",
"-  c #424ACB",
";  c #424BCB",
":  c #4048CC",
">  c #4049CC",
",  c #4149CC",
"<  c #4249CC",
"1  c #404ACC",
"2  c #414ACC",
"3  c #424ACC",
"4  c #424BCC",
"5  c #434BCC",
"6  c #424BCD",
"7  c #434BCD",
"8  c #434CCC",
"9  c #424CCD",
"0  c #434CCD",
"q  c #434DCD",
"w  c #444CCC",
"e  c #444DCC",
"r  c #454DCC",
"t  c #444CCD",
"y  c #444DCD",
"u  c #454DCD",
"i  c #444ECC",
"p  c #454ECC",
"a  c #444ECD",
"s  c #454ECD",
"d  c #454FCD",
"f  c #464ECC",
"g  c #464FCC",
"h  c #464ECD",
"j  c #474ECD",
"k  c #464FCD",
"l  c #474FCD",
"z  c #464FCE",
"x  c #474FCE",
"c  c #4650CD",
"v  c #4750CD",
"b  c #4751CD",
"n  c #4750CE",
"m  c #4751CE",
"M  c #4850CD",
"N  c #4950CD",
"B  c #4851CD",
"V  c #4951CD",
"C  c #4A51CD",
"Z  c #4852CD",
"A  c #4952CD",
"S  c #4850CE",
"D  c #4950CE",
"F  c #4851CE",
"G  c #4951CE",
"H  c #4952CF",
"J  c #4A52CE",
"K  c #4B52CE",
"L  c #4A53CE",
"P  c #4B53CE",
"I  c #4A52CF",
"U  c #4B52CF",
"Y  c #4B53CF",
"T  c #4A54CE",
"R  c #4B54CE",
"E  c #4A54CF",
"W  c #4C54CE",
"Q  c #4D54CE",
"!  c #4C55CE",
"~  c #4D55CE",
"^  c #4C54CF",
"/  c #4C55CF",
"(  c #4D55CF",
")  c #4E55CF",
"_  c #4C56CE",
"`  c #4E56CF",
"'  c #4F56CF",
"]  c #4F57CF",
"[  c #4F58CF",
"{  c #4F59CF",
"}  c #5057CF",
"|  c #5058CF",
" . c #5059CF",
".. c #5159CF",
"X. c #4D55D0",
"o. c #4E57D0",
"O. c #4F58D0",
"+. c #5057D0",
"@. c #5058D0",
"#. c #5159D0",
"$. c #5259D1",
"%. c #515AD0",
"&. c #535BD0",
"*. c #545BD1",
"=. c #535CD0",
"-. c #535CD1",
";. c #545CD1",
":. c #565ED0",
">. c #575FD1",
",. c #565ED2",
"<. c #5860D1",
"1. c #5861D1",
"2. c #5860D2",
"3. c #5B61D2",
"4. c #5A62D2",
"5. c #5C62D2",
"6. c #5F67D3",
"7. c #636BD5",
"8. c #676ED4",
"9. c #676FD5",
"0. c #696FD5",
"q. c #696FD6",
"w. c #6B72D6",
"e. c #6C72D5",
/* pixels */
"                                                                                          ",
"                                                                  5.                      ",
"                                                                S                         ",
"                                                              S 0.                        ",
"                      #.W S                             W E t w.                          ",
"    [ S 6.                  4 t t t b W             S E W                                 ",
"          S t W W t t b b b         E % 2.        t e.                                    ",
"              S W S       E % t       t S       t ..                                      ",
"                          w.% X 4 W S % 4 #.    =       =.S S b 8 8 t t % t x }           ",
"                      S 4 o O $ o 4 % X o 4 #.X.% S   S O $ O O O % S ..S S o 4 % 2.      ",
"                  W 4 % o o o 4 o $ o 4 o $ % 8 t t 8 O o $ $ $ S           S W ,.X ,.    ",
"                S X $ $ 4 o o o $ o $ o $ X t       E % 4 o $ X #.                2...    ",
"                #.t t S = O o o o o o 4 o t         S % o 4 o o %                         ",
"                    W } b % 4 o 4 o o o $ S         X.% o o 4 o %                         ",
"                W % % O $ $ o o o 4 o 4 o O W       S % o $ o X W                         ",
"                  t O O $ $ 4 o o o o o $ $ O 4 ,.2.W X 4 o $ X W           S   2.O S     ",
"                    S t X $ $ $ o : X $ 4 X W t % b S 8 4 o o o X 4 X.    0.% % t S       ",
"                          t X O 4 t t o O S     O       4 4 O 4 4 4 $ o $ $ % t P         ",
"                            $ %       4 t       4 0.                                      ",
"          t S 4 8 b t 4 t 8 O.        4 ,.      P t                                       ",
"      2.S 7.                =.b % w t t           ..S X.                                  ",
"                        >.S W S                       #.t S t                             ",
"                      W                                     ..b                           ",
"                                                                E                         ",
"                                                                  ..                      ",
"                                                                                          ",
"                                                                                          "
};
