/* XPM */
static char *WG1638793816[] = {
/* columns rows colors chars-per-pixel */
"45 27 157 2 ",
"   c None",
".  c #3E47CB",
"X  c #3F47CB",
"o  c #3E47CC",
"O  c #3F47CC",
"+  c #3F48CB",
"@  c #3F49CB",
"#  c #3E48CC",
"$  c #3F48CC",
"%  c #3F49CC",
"&  c #4048CB",
"*  c #4049CB",
"=  c #4249CB",
"-  c #404ACB",
";  c #414ACB",
":  c #414BCB",
">  c #424ACB",
",  c #4048CC",
"<  c #4049CC",
"1  c #4149CC",
"2  c #404ACC",
"3  c #414ACC",
"4  c #414BCC",
"5  c #414ACD",
"6  c #414BCD",
"7  c #424ACC",
"8  c #424BCC",
"9  c #424ACD",
"0  c #424BCD",
"q  c #434BCD",
"w  c #444BCD",
"e  c #424CCC",
"r  c #434CCC",
"t  c #434DCC",
"y  c #424CCD",
"u  c #434CCD",
"i  c #444CCC",
"p  c #444DCC",
"a  c #454DCC",
"s  c #444CCD",
"d  c #454CCD",
"f  c #444DCD",
"g  c #454DCD",
"h  c #464DCC",
"j  c #444ECC",
"k  c #454ECC",
"l  c #454FCC",
"z  c #444ECD",
"x  c #454ECD",
"c  c #454FCD",
"v  c #464ECC",
"b  c #464ECD",
"n  c #464FCD",
"m  c #474FCD",
"M  c #464FCE",
"N  c #474FCE",
"B  c #484FCE",
"V  c #4750CD",
"C  c #4751CE",
"Z  c #4850CD",
"A  c #4950CD",
"S  c #4851CD",
"D  c #4951CD",
"F  c #4A51CD",
"G  c #4952CD",
"H  c #4A52CD",
"J  c #4B52CD",
"K  c #4A53CD",
"L  c #4851CE",
"P  c #4951CE",
"I  c #4A51CE",
"U  c #4852CE",
"Y  c #4953CE",
"T  c #4A52CE",
"R  c #4A53CE",
"E  c #4B53CE",
"W  c #4B53CF",
"Q  c #4C53CE",
"!  c #4C53CF",
"~  c #4A54CE",
"^  c #4B54CF",
"/  c #4D54CE",
"(  c #4C55CE",
")  c #4C54CF",
"_  c #4C55CF",
"`  c #4D55CF",
"'  c #4E55CE",
"]  c #4E55CF",
"[  c #4D57CF",
"{  c #4E56CF",
"}  c #4F56CF",
"|  c #4E57CF",
" . c #4E58CF",
".. c #5158CF",
"X. c #5059CF",
"o. c #5159CF",
"O. c #525ACF",
"+. c #4D56D0",
"@. c #4D57D0",
"#. c #4F57D0",
"$. c #5057D0",
"%. c #5058D0",
"&. c #5159D0",
"*. c #515AD1",
"=. c #525AD0",
"-. c #535AD0",
";. c #535BD0",
":. c #525AD1",
">. c #545BD0",
",. c #545BD1",
"<. c #535CD1",
"1. c #545CD0",
"2. c #555DD0",
"3. c #545CD1",
"4. c #555CD1",
"5. c #545DD1",
"6. c #555DD1",
"7. c #565DD0",
"8. c #565DD1",
"9. c #555ED0",
"0. c #555ED1",
"q. c #565ED0",
"w. c #575FD0",
"e. c #575ED1",
"r. c #545DD2",
"t. c #575ED2",
"y. c #575FD2",
"u. c #585FD1",
"i. c #5960D1",
"p. c #5960D2",
"a. c #5961D2",
"s. c #5B61D2",
"d. c #5A61D3",
"f. c #5962D3",
"g. c #5B63D3",
"h. c #5C63D3",
"j. c #5C64D2",
"k. c #5D64D2",
"l. c #5C64D3",
"z. c #5D65D3",
"x. c #5E65D3",
"c. c #5E66D2",
"v. c #5E66D3",
"b. c #5F67D3",
"n. c #5F66D4",
"m. c #5F67D4",
"M. c #6066D4",
"N. c #6169D4",
"B. c #646AD5",
"V. c #646BD5",
"C. c #656DD5",
"Z. c #696FD5",
"A. c #6A70D5",
"S. c #6D73D7",
"D. c #6E76D7",
"F. c #7178D7",
"G. c #747BD9",
/* pixels */
"                                                                                          ",
"                                                                                          ",
"                                      R Z.        u.                                      ",
"                                        _ _ =.o.$.; b             t.n.                    ",
"                        =.f.                        + R               M.n.    t.          ",
"                    _ b X + + u w R R ~ V R f.        + _                 _ R X n.        ",
"                f.R t.o.b b b b b u + $ $ $ + + R u.  f.+ t.              ,.X R u         ",
"  ! 8 ; u V u R u                   b + + $ $ $ X X u   t.8               8 b M.t.b   t.  ",
"    S.=.R u.                            R $ $ $ $ $ $ b C.; e           u B       R R     ",
"                                      ~ b $ $ $ $ $ $ + 8 $ $ + R     ; b                 ",
"                              t.~ 8 $ O t.$ $ $ $ $ $ $ $ $ + u + ; ; + e                 ",
"                        j.b ; X + X O 8   V X + + $ $ $ $ $ X =.u =.+ $ + O ~ @.          ",
"                    _ 8 O $ $ $ $ X t.;     V.$.~ ~ b u O ; X b b <.$ $ $ $ X b           ",
"                    8 + $ $ $ $ $ 8   u                   j.u + b b $ $ $ $ $ b           ",
"                    R + $ $ $ $ O 8   8             ~ ~ V b + ; b R + $ $ $ O b           ",
"                      t.b X $ $ O + u 8   B 8 + ; O + $ $ X X t.b ~ + $ $ + 8 R           ",
"                            _ b $ + + X f.b O $ $ $ $ $ $ $ + t.8 ! X O 8 V   o.          ",
"                                  t.V ; u 8 $ $ $ $ $ + + $ $ + 8 @._ 8 R                 ",
"                                        ~ + $ $ $ $ $ $ R $ + =.      t.X _       R =.    ",
"  R 8 8 8 8 b =.                      R ; $ $ $ $ + $ @.f.u <.          =.X _     8 =.f.  ",
"            %.R R t.    t.R O.j.t.o.$ + $ $ + + ; b     e _               R O h._ O.      ",
"                    b + + $ ; X ; + O $ $ 8 u R       B b                 j.+ $ !         ",
"                      j.b R =.,.                    b 8                 j.D.A.b           ",
"                                          _ t.F.G.u 8 o.            V.                    ",
"                                      u.@.    j.R ; t.          N.                        ",
"                                      j.                                                  ",
"                                                                                          "
};
