/* XPM */
static char *WL1638793816[] = {
/* columns rows colors chars-per-pixel */
"45 35 107 2 ",
"   c None",
".  c #3E47CB",
"X  c #3F47CB",
"o  c #3E47CC",
"O  c #3E48CB",
"+  c #3F48CB",
"@  c #3F49CB",
"#  c #3E48CC",
"$  c #3F48CC",
"%  c #3F49CC",
"&  c #4047CB",
"*  c #4048CB",
"=  c #4049CB",
"-  c #4149CB",
";  c #404ACB",
":  c #414ACB",
">  c #424ACB",
",  c #434ACB",
"<  c #424BCB",
"1  c #4048CC",
"2  c #4049CC",
"3  c #404ACC",
"4  c #414ACC",
"5  c #414BCC",
"6  c #424ACC",
"7  c #424BCC",
"8  c #434BCC",
"9  c #424BCD",
"0  c #434BCD",
"q  c #424CCC",
"w  c #434CCC",
"e  c #434DCC",
"r  c #424CCD",
"t  c #434CCD",
"y  c #434DCD",
"u  c #444CCC",
"i  c #444DCC",
"p  c #444CCD",
"a  c #444DCD",
"s  c #454DCD",
"d  c #464DCC",
"f  c #454ECC",
"g  c #454ECD",
"h  c #464ECC",
"j  c #464ECD",
"k  c #474ECD",
"l  c #464FCD",
"z  c #474FCD",
"x  c #464ECE",
"c  c #464FCE",
"v  c #4750CE",
"b  c #4850CD",
"n  c #4950CD",
"m  c #4951CD",
"M  c #4A51CD",
"N  c #4952CD",
"B  c #4A52CD",
"V  c #4851CE",
"C  c #4952CE",
"Z  c #4953CE",
"A  c #4952CF",
"S  c #4953CF",
"D  c #4A53CE",
"F  c #4C53CE",
"G  c #4B54CE",
"H  c #4B54CF",
"J  c #4C54CE",
"K  c #4C54CF",
"L  c #4D54CF",
"P  c #4D55CF",
"I  c #4E55CE",
"U  c #4D56CE",
"Y  c #4E57CE",
"T  c #4E56CF",
"R  c #4E57CF",
"E  c #4F57CF",
"W  c #5059CF",
"Q  c #5259CF",
"!  c #4E56D0",
"~  c #4E57D0",
"^  c #4F57D0",
"/  c #4F58D0",
"(  c #5058D0",
")  c #5159D0",
"_  c #5259D0",
"`  c #515AD0",
"'  c #525AD1",
"]  c #525BD1",
"[  c #535BD1",
"{  c #535CD1",
"}  c #545DD0",
"|  c #545CD1",
" . c #545DD1",
".. c #565ED0",
"X. c #575ED1",
"o. c #575FD1",
"O. c #575FD2",
"+. c #585FD0",
"@. c #5961D1",
"#. c #5860D2",
"$. c #5A61D2",
"%. c #5B61D2",
"&. c #5E66D3",
"*. c #5D65D4",
"=. c #656BD4",
"-. c #6B72D5",
";. c #7279D9",
/* pixels */
"                                                                                          ",
"                        #.                                                                ",
"                          &.                                                              ",
"                                                                                          ",
"    ..                              ..                                                    ",
"        K                             K                                                   ",
"                _                     b                                           ..      ",
"                    K                 z                                         b _       ",
"                      /             +.=                                       _ %.        ",
"                        4 z = 4 $ o . + . = = z _                         b b             ",
"                    _ , + $ $ $ $ $ $ $ 4 o o o $ o 4 z {             S %.                ",
"                K 4 . 4 $ $ $ $ $ $ $ $ $ + o z w 4 $ $ o _         z _                   ",
"              K = o o $ . = & $ $ o o 4 $ 4 =.      = o 4 p     ( = =                     ",
"            = + o 4 4 = K     w . 4 o o $ =         z = o p   b $ 4 = K                   ",
"          4 + $ o o 4 z         = o 4 o $ + Q     z = o o 4 b 4 o o 4 . v                 ",
"        K = $ $ 4 o o 4         = o 4 o $ $ + = & + + $ $ $ $ $ 4 o o o 4 o 4 ! -...      ",
"        4 $ $ $ $ $ $ + = z z 4 = o o 4 $ $ $ $ $ $ $ $ $ $ $ $ $ $ $ $ $ $ $ $ w         ",
"        4 $ $ $ $ $ $ $ + $ o $ o 4 o o $ $ $ $ $ $ $ $ $ $ $ $ $ $ $ $ $ $ $ $ z         ",
"        w $ $ $ $ $ $ + $ $ . $ 4 o 4 o $ $ $ $ $ $ $ $ $ $ $ $ $ $ $ $ $ $ $ $ 4         ",
"        b + $ o $ $ 4 = b     / o o 4 o $ $ $ + + $ $ $ $ $ $ $ $ $ $ $ + + 4 b %./       ",
"          = 4 o $ $ $ b         4 o o o 4 . b ! S w + $ $ 4 b = $ $ $ = v                 ",
"            z o $ $ $ w         4 o 4 o . z         w $ $ 4   z $ $ + K                   ",
"              v + $ $ $ 4 4 = + . 4 o o o 4         w $ $ w     F 4 o                     ",
"                K w $ $ $ $ $ $ 1 o o 4 o = z ! _ z $ + + !         z ..                  ",
"                    z 4 o o 4 o $ $ $ $ $ $ $ 4 + $ w z b             S ;.                ",
"                        4 z 4 = 4 . + $ $ $ w b /                         S S             ",
"                      / F           { w                                       v {         ",
"                    %.                z                                         K %.      ",
"                                      z                                           /       ",
"                                      K                                                   ",
"    *.                                                                                    ",
"                                                                                          ",
"                                                                                          ",
"                                                                                          ",
"                                                                                          "
};
