/* XPM */
static char *WM1638793816[] = {
/* columns rows colors chars-per-pixel */
"45 32 162 2 ",
"   c None",
".  c #5B5BB7",
"X  c #5D5DB6",
"o  c #5156BD",
"O  c #5457BF",
"+  c #545ABF",
"@  c #5A5DBB",
"#  c #5C5EB9",
"$  c #6C5EBC",
"%  c #5C62BD",
"&  c #5E63BE",
"*  c #6064B9",
"=  c #6365B8",
"-  c #686ABD",
";  c #6A6CBC",
":  c #7162B8",
">  c #7168BB",
",  c #3E48C4",
"<  c #3F47CA",
"1  c #3E47CB",
"2  c #3F48CA",
"3  c #3F48CB",
"4  c #3F48CC",
"5  c #4149C3",
"6  c #4049C7",
"7  c #4149C7",
"8  c #4349C6",
"9  c #434CC7",
"0  c #464DC4",
"q  c #474FC7",
"w  c #484EC4",
"e  c #494FC4",
"r  c #484EC6",
"t  c #4A4EC6",
"y  c #4048C9",
"u  c #4049C9",
"i  c #4149C9",
"p  c #4249C8",
"a  c #4249C9",
"s  c #404AC9",
"d  c #414AC9",
"f  c #434BC9",
"g  c #4048CA",
"h  c #4148CA",
"j  c #4049CA",
"k  c #4149CA",
"l  c #4049CB",
"z  c #4149CB",
"x  c #4249CA",
"c  c #4249CB",
"v  c #414ACA",
"b  c #404ACB",
"n  c #414ACB",
"m  c #424ACA",
"M  c #434BCA",
"N  c #424ACB",
"B  c #444AC8",
"V  c #434CC8",
"C  c #444CC8",
"Z  c #454DC8",
"A  c #454CC9",
"S  c #464DC9",
"D  c #464EC8",
"F  c #474EC8",
"G  c #464EC9",
"H  c #474FC9",
"J  c #464ECA",
"K  c #4048CC",
"L  c #434BCC",
"P  c #484DC8",
"I  c #494FC8",
"U  c #4950C2",
"Y  c #4950C3",
"T  c #4D51C0",
"R  c #4D53C2",
"E  c #4D52C3",
"W  c #4C53C3",
"Q  c #4E53C2",
"!  c #4F53C2",
"~  c #4E54C0",
"^  c #4D54C2",
"/  c #4F54C2",
"(  c #4E54C3",
")  c #4F54C3",
"_  c #4F56C3",
"`  c #4A51C4",
"'  c #4B52C4",
"]  c #4B50C6",
"[  c #4A50C7",
"{  c #4B50C7",
"}  c #4B52C6",
"|  c #4B52C7",
" . c #4C52C5",
".. c #4F53C4",
"X. c #4F53C5",
"o. c #4C51C6",
"O. c #4C51C7",
"+. c #4F51C7",
"@. c #4C52C7",
"#. c #4E53C6",
"$. c #4D54C5",
"%. c #4E54C4",
"&. c #4E54C5",
"*. c #4E54C6",
"=. c #4A50C8",
"-. c #4B51C8",
";. c #4B51C9",
":. c #4951CA",
">. c #4C53C8",
",. c #4E53C9",
"<. c #4E54C8",
"1. c #4E55C8",
"2. c #4F58CA",
"3. c #5155C3",
"4. c #5255C2",
"5. c #5157C2",
"6. c #5056C3",
"7. c #5156C3",
"8. c #5356C2",
"9. c #5457C2",
"0. c #5350C4",
"q. c #5054C4",
"w. c #5154C4",
"e. c #5055C4",
"r. c #5156C5",
"t. c #5256C5",
"y. c #5055C6",
"u. c #5055C7",
"i. c #5056C6",
"p. c #5357C6",
"a. c #5457C5",
"s. c #5359C2",
"d. c #5658C1",
"f. c #545AC0",
"g. c #5459C2",
"h. c #575BC3",
"j. c #5258C6",
"k. c #5458C5",
"l. c #575BC5",
"z. c #565BC7",
"x. c #585BC0",
"c. c #585AC1",
"v. c #5A5BC0",
"b. c #5A5AC1",
"n. c #585EC3",
"m. c #5D5DC0",
"M. c #5C5EC1",
"N. c #5F5FC0",
"B. c #5F5FC5",
"V. c #5154C8",
"C. c #5055C8",
"Z. c #5056C8",
"A. c #5156C8",
"S. c #605EC2",
"D. c #5E62C0",
"F. c #5E60C2",
"G. c #5F65C3",
"H. c #5D63C4",
"J. c #6063C2",
"K. c #6166C7",
"L. c #656BC3",
"P. c #716DC8",
/* pixels */
"                                                                                          ",
"                                                      0.I                                 ",
"                              k.                    6.< 4 =.                              ",
"                              -                     B K 4 V                               ",
"                                M.                  k 4 4 '                               ",
"                                  O               P.k 4 3                                 ",
"                                    6.            V.4 4 K                                 ",
"                                      u.w.        ,.4 4 H                                 ",
"                                          v.+     ' 4 4 V                                 ",
"      S.                                      @.u.B 4 3 j.              m.                ",
"          M.f.                                    k 4 3 o         @.f.                    ",
"              # 6.;                 # 6.u.*       u.4 3       :                           ",
"                    &.'     X e Y ) %     > >.    ' 3 <     $                             ",
"                        . @.                  V.c.9.3 k 6.                                ",
"                                                  M.< w &.R                               ",
"                                  , 8 , k k k k H 2.8 k B 4 3 ' Y L.                      ",
"                                    L k k k k k H e 8 3 3 3 k q q ' H.                    ",
"                                                  @.8 Y &.9                               ",
"                          )                   = s.R 3 k ,.>.                              ",
"                    R R 6.% @.@.) 6.        u.    V.3 <     a.                            ",
"                J.V.                u.u.6.@.      @.3 3       c.                          ",
"          @.F.                                    H 4 4 K.      u.&.                      ",
"        )                                     ,.' k 4 4 H             =.f.                ",
"                                          6.e     k K K k               G.                ",
"                                        >.        =.4 4 K                 z.              ",
"                                    k.,.          H 4 4 k                   F.            ",
"                                  J.              H 4 4 <                     F.          ",
"                                z.                  < 4 4 H                               ",
"                                                    K 4 4 k                               ",
"                              a.                    H 4 4 3                               ",
"                                                      V K                                 ",
"                                                                                          "
};
