/* XPM */
static char *WP1638793816[] = {
/* columns rows colors chars-per-pixel */
"45 31 45 1 ",
"  c None",
". c #3D3FB1",
"X c #3A42BD",
"o c #565AA4",
"O c #5C5FA6",
"+ c #565AA8",
"@ c #595DA8",
"# c #474EBE",
"$ c #4C53BD",
"% c #5356B3",
"& c #5358B6",
"* c #595EB4",
"= c #5256BC",
"- c #555ABD",
"; c #5A5CBD",
": c #655EBC",
"> c #6B5FBA",
", c #5D62B5",
"< c #5E63BC",
"1 c #6361B7",
"2 c #6868B7",
"3 c #6364BB",
"4 c #6A66B9",
"5 c #6769B9",
"6 c #6A6BBB",
"7 c #7665B8",
"8 c #716BB8",
"9 c #7E73BC",
"0 c #3E46C6",
"q c #3E46C9",
"w c #3F48C9",
"e c #454DC5",
"r c #494EC5",
"t c #434BC9",
"y c #4C53C3",
"u c #4A50C8",
"i c #5256C2",
"p c #5C57C1",
"a c #5459C2",
"s c #5B5BC3",
"d c #5259C8",
"f c #5E63C1",
"g c #6564C0",
"h c #676AC0",
"j c #6F6FC0",
/* pixels */
"                                             ",
"                                         3   ",
"                                         s   ",
"                                          a  ",
"              u     u    8-               r  ",
"         s    ea    ry    t6   y*         =  ",
"         ts  auei- -uw%ahayy- <ti         s, ",
"      rj eweey   a   ;  4i  i;ir=         f< ",
"    * $trX       y       ;   a  :ys<dty   a< ",
"    tet  .    i  s       y   $   y  yu    s< ",
"    -0 0  w   r      i   y   &   i   -    a, ",
" i ;t0    w   e   O  a   a   =   -   ;i:  u, ",
" ate0      0  y   o  s   i   y   y   a 95 e  ",
"  e00      t  i   =  u   y   y   i   i  eed  ",
"  u        t  i   $  e   $   y   y   & 4td   ",
"  u00 w    e  i   y  e   $   y   y   &  =    ",
"  y00     0u  a   $  u   u   y   r   &  y    ",
" -eu0    0we  y   +  s   e   y   #   & 7t;   ",
" :  e0    0   e   @  s   i   y   y   =  ref  ",
"    et    0   e      s   s   y   y   ; f  e  ",
"   ;< e0      r  f   s   s   y   i   4i   y  ",
"      ytt0    -  a   a   s   -       g    :, ",
"      i-4tw  e   f   s   p   =   i1<ea    g, ",
"        ;r4  i$ryf  us  ;a  f& ui=6  u    f& ",
"              ra a ;tu;i yee -yt          a, ",
"              a    pi     i3   y          i  ",
"                                          a  ",
"                                         ;   ",
"                                        66   ",
"                                        s    ",
"                                             "
};
