/* XPM */
static char *WQ1638782292[] = {
/* columns rows colors chars-per-pixel */
"44 29 124 2 ",
"   c None",
".  c #3F47CB",
"X  c #3E47CC",
"o  c #3F47CC",
"O  c #3F48CB",
"+  c #3F49CB",
"@  c #3E48CC",
"#  c #3F48CC",
"$  c #3F49CC",
"%  c #4048CB",
"&  c #4049CB",
"*  c #4149CB",
"=  c #414ACB",
"-  c #414BCB",
";  c #424ACB",
":  c #424BCB",
">  c #434BCB",
",  c #4048CC",
"<  c #4148CC",
"1  c #4049CC",
"2  c #4149CC",
"3  c #404ACC",
"4  c #414ACC",
"5  c #414ACD",
"6  c #434ACC",
"7  c #424BCC",
"8  c #434BCC",
"9  c #434ACD",
"0  c #424BCD",
"q  c #434BCD",
"w  c #434CCC",
"e  c #434CCD",
"r  c #434DCD",
"t  c #444CCC",
"y  c #454CCC",
"u  c #444DCC",
"i  c #454DCC",
"p  c #444DCD",
"a  c #464DCC",
"s  c #454ECC",
"d  c #454FCC",
"f  c #454ECD",
"g  c #464ECC",
"h  c #464FCC",
"j  c #464FCD",
"k  c #474FCD",
"l  c #474FCE",
"z  c #4650CC",
"x  c #4650CD",
"c  c #4750CD",
"v  c #4750CE",
"b  c #4751CE",
"n  c #4850CD",
"m  c #4950CD",
"M  c #4851CD",
"N  c #4951CD",
"B  c #4A51CD",
"V  c #4B52CD",
"C  c #4B53CD",
"Z  c #4850CE",
"A  c #4950CE",
"S  c #4851CE",
"D  c #4951CE",
"F  c #4952CE",
"G  c #4A52CE",
"H  c #4B53CE",
"J  c #4A52CF",
"K  c #4A53CF",
"L  c #4B53CF",
"P  c #4C53CF",
"I  c #4B54CE",
"U  c #4C54CD",
"Y  c #4D54CE",
"T  c #4C55CE",
"R  c #4C54CF",
"E  c #4D55CF",
"W  c #4D56CF",
"Q  c #4E56CE",
"!  c #4F56CE",
"~  c #4E56CF",
"^  c #4F57CF",
"/  c #5056CE",
"(  c #5056CF",
")  c #5058CF",
"_  c #5158CF",
"`  c #5059CF",
"'  c #5159CF",
"]  c #5259CF",
"[  c #515ACF",
"{  c #525ACF",
"}  c #535ACF",
"|  c #4D56D0",
" . c #4E56D0",
".. c #4F56D0",
"X. c #5057D0",
"o. c #5158D0",
"O. c #5159D0",
"+. c #525AD0",
"@. c #535BD1",
"#. c #545BD0",
"$. c #555BD0",
"%. c #555CD0",
"&. c #545DD0",
"*. c #545DD1",
"=. c #555DD1",
"-. c #555DD2",
";. c #565DD2",
":. c #575ED2",
">. c #585ED1",
",. c #5860D1",
"<. c #5960D1",
"1. c #5860D2",
"2. c #5960D2",
"3. c #5A61D2",
"4. c #5A63D3",
"5. c #5C62D1",
"6. c #5C63D3",
"7. c #5D64D1",
"8. c #656BD4",
"9. c #646BD5",
"0. c #6F76D8",
"q. c #7379D8",
"w. c #747BDA",
"e. c #777DDA",
/* pixels */
"                                                                                        ",
"                                                                                        ",
"                                                                                        ",
"                        2.            *.        2.          9.                          ",
"                          n *.          n b n n           P +.                          ",
"                            n         q.2 $ 2 p           p                             ",
"                            n         . $ X 2 . p       ^ ^                             ",
"  4.2 = 2 2 2 p |             n     e.2 X $ X $ p     +.w           +.n 2 = 2 2 2 n     ",
"  p 2 $ 2 X $ X + X w )         p n 2 X $ $ 2 2 = ^ p n       w.p = = $ X 2 2 X $ = 2.  ",
"    2 $ X $ X 2 X 2 X + = p X.  ) 2 2 + = 2 w 2 X . p   6.n w 2 X 2 + X $ X X $ X 2     ",
"    ^ + $ X X $ $ X 2 X X $ . . = = +           ) $ = 2 X $ $ $ $ X $ X X $ X X =       ",
"      / $ . 2 X X 2 X $ 2 X $ $ X % +./ Z p p n n > X $ 2 X 2 X X 2 X 2 2 X = =         ",
"          I > = 2 X 2 X $ X 2 X 2 + . + X $ X + + . . + X 2 X $ $ X 2 X = p )           ",
"              = . $ X $ X 2 X $ . X $ X 2 X 2 X X X $ = $ X 2 X X $ X + p               ",
"                p 2 + 2 $ X = 2 p P . $ X $ X 2 2 p ^ p $ + X $ $ . = ^                 ",
"                    n 2 = t n   / 2 = X 2 X $ X X = p | n > > 2 2 ^                     ",
"                            >.P     2 2 X 2 X $ . p   *.n                               ",
"                          +.+.    *.2 = $ 2 $ . = n       |                             ",
"                          n       + *.  n = = p   Z b       n                           ",
"                        n       n = |             n + X.    >.+.                        ",
"                      |       5.2 w n           0.% p Z         >.                      ",
"                    2.        p   *.p 2 n n n p = p   +.^                               ",
"                            b       X.p = 2 + $ ) |     ^ *.                            ",
"                          ) *.      ^     p n     /       I                             ",
"                        *.9.        n           9.          ^                           ",
"                                      n       | b                                       ",
"                                      | 2 = 2 t                                         ",
"                                          n )                                           ",
"                                                                                        "
};
