/* XPM */
static char *WS1638793817[] = {
/* columns rows colors chars-per-pixel */
"45 26 206 2 ",
"   c None",
".  c #565BAE",
"X  c #494FBF",
"o  c #5458BE",
"O  c #5459BE",
"+  c #5E5EBD",
"@  c #5C5DBF",
"#  c #5E5EBE",
"$  c #5D63B8",
"%  c #5F63BF",
"&  c #6164B5",
"*  c #6366B7",
"=  c #6161B9",
"-  c #6161BB",
";  c #6461B9",
":  c #6461BA",
">  c #6164BA",
",  c #6064BB",
"<  c #6467BC",
"1  c #6567BD",
"2  c #6D63BB",
"3  c #6A60BD",
"4  c #6A66BC",
"5  c #6A6DBA",
"6  c #6D6DBA",
"7  c #6A6ABC",
"8  c #696BBE",
"9  c #696CBD",
"0  c #6A6CBC",
"q  c #7064B4",
"w  c #7262BB",
"e  c #7764B8",
"r  c #726DBA",
"t  c #3C45C2",
"y  c #3D44C3",
"u  c #3C44C4",
"i  c #3C45C5",
"p  c #3D45C5",
"a  c #3D45C7",
"s  c #3D46C6",
"d  c #3D46C7",
"f  c #3E46C6",
"g  c #3C46C8",
"h  c #3D46C8",
"j  c #3D47C8",
"k  c #3D47C9",
"l  c #3E47C8",
"z  c #3E47C9",
"x  c #3D47CA",
"c  c #3D46CB",
"v  c #3F47CA",
"b  c #3F47CB",
"n  c #3F48C9",
"m  c #3F48CA",
"M  c #3F48CB",
"N  c #3F48CC",
"B  c #4149C3",
"V  c #4148C4",
"C  c #424BC6",
"Z  c #424AC7",
"A  c #454BC7",
"S  c #474EC4",
"D  c #474DC6",
"F  c #464DC7",
"G  c #474EC6",
"H  c #474EC7",
"J  c #494FC5",
"K  c #494DC6",
"L  c #484DC7",
"P  c #494FC6",
"I  c #484FC7",
"U  c #4D4EC5",
"Y  c #4D4FC7",
"T  c #4149C8",
"R  c #4048C9",
"E  c #4249C9",
"W  c #414AC8",
"Q  c #414AC9",
"!  c #424AC8",
"~  c #424AC9",
"^  c #434AC9",
"/  c #424BC9",
"(  c #434BC9",
")  c #4048CA",
"_  c #4049CA",
"`  c #414ACB",
"'  c #434ACA",
"]  c #444BC8",
"[  c #454BC8",
"{  c #454BC9",
"}  c #434CC8",
"|  c #434CCA",
" . c #454CC8",
".. c #454DC8",
"X. c #444CC9",
"o. c #454CC9",
"O. c #474DC8",
"+. c #474DC9",
"@. c #464EC9",
"#. c #444CCA",
"$. c #484CC8",
"%. c #484DC8",
"&. c #494DC8",
"*. c #494EC8",
"=. c #484FC8",
"-. c #494FC8",
";. c #4C4EC8",
":. c #4750C7",
">. c #4E53C3",
",. c #4D54C1",
"<. c #4F57C0",
"1. c #4950C5",
"2. c #4A51C4",
"3. c #4B52C5",
"4. c #4A51C7",
"5. c #4A52C6",
"6. c #4B52C6",
"7. c #4C52C4",
"8. c #4D53C4",
"9. c #4F53C4",
"0. c #4D51C6",
"q. c #4E51C7",
"w. c #4C52C6",
"e. c #4D52C6",
"r. c #4D53C7",
"t. c #4E53C6",
"y. c #4D54C5",
"u. c #4E54C5",
"i. c #4F54C6",
"p. c #4F55C6",
"a. c #4850C8",
"s. c #4950C8",
"d. c #4850C9",
"f. c #4950C9",
"g. c #4A50C8",
"h. c #4A52C8",
"j. c #4B52C8",
"k. c #4A52CB",
"l. c #4E51CA",
"z. c #5552C2",
"x. c #5054C1",
"c. c #5154C1",
"v. c #5055C1",
"b. c #5057C1",
"n. c #5356C0",
"m. c #5156C2",
"M. c #5056C3",
"N. c #5256C3",
"B. c #5257C3",
"V. c #5555C3",
"C. c #5756C2",
"Z. c #5657C3",
"A. c #5051C5",
"S. c #5152C5",
"D. c #5052C6",
"F. c #5053C6",
"G. c #5052C7",
"H. c #5054C4",
"J. c #5154C4",
"K. c #5055C4",
"L. c #5155C4",
"P. c #5156C4",
"I. c #5057C4",
"U. c #5057C5",
"Y. c #5257C4",
"T. c #5357C5",
"R. c #5256C6",
"E. c #5359C0",
"W. c #5258C3",
"Q. c #5659C2",
"!. c #555BC3",
"~. c #575AC2",
"^. c #565AC3",
"/. c #575AC3",
"(. c #565CC2",
"). c #5259C5",
"_. c #5158C6",
"`. c #5558C4",
"'. c #5459C5",
"]. c #545AC4",
"[. c #555AC4",
"{. c #565BC4",
"}. c #575AC5",
"|. c #555AC6",
" X c #565CC7",
".X c #5858C2",
"XX c #5C5AC1",
"oX c #595CC3",
"OX c #5859C5",
"+X c #5959C5",
"@X c #5A5BC7",
"#X c #5C5AC7",
"$X c #585EC5",
"%X c #5E5EC5",
"&X c #5154C9",
"*X c #5157C8",
"=X c #555BCA",
"-X c #585BC8",
";X c #585BC9",
":X c #615DC1",
">X c #5D62C0",
",X c #5A60C6",
"<X c #6565C4",
"1X c #686AC3",
"2X c #696FC1",
"3X c #706CC1",
/* pixels */
"            5 &                                                                           ",
"              2XY.Y.(.                                    =XY.`.>                         ",
"                    8 Y.o                           z.1.h.$                               ",
"                          8.N.                  q 8.G.                                    ",
"                            Y.+.              V.+.2                                       ",
"    : N.'.E.. <.8.h.h.&.l.    w {           =X1.      Y.l.G { Z Z B Z G 8.-               ",
"                        8.Q +.  .XG       1 L     '.Q j j                       S         ",
"                      % N.Q N Q `.G @X    8.#   &.j                                       ",
"                  V.Q Q ` N N N ) j Q   3 Y.<XQ j                                         ",
"                XX&.@X  :XQ N N ` ` ) *XL N.&.i                                           ",
"              '.+.      &.m N N N N N N ) j b i j j                                       ",
"              +.).    {.m N N N N N N b ) ) N b p                                         ",
"            @XQ       '.N N N N N N N N N N N j                                           ",
"            #Xm       (.N N N N N N N N N N N j p                                         ",
"              L ).    `.N N N N N N N N N N m b p                                         ",
"              > Q `.    G.N N N N N ) ` m | b p                                           ",
"                e Q S ).%Xm N N N N b >X+.# U p                                           ",
"                    1.+.m N N m ) b &.    8.r h.j                                         ",
"                        4 Q m U '.+.1X    Y.'.  @XQ t                                     ",
"                      k.&.+.N.6 V.p.        +.<   8 &.j j y                   8.          ",
"    8 N.y.y.*XN.1.h.1.8.-     V.G.          3XQ @X      # h.h.&.h.1.L <.<X                ",
"                            G.1.              .XG Y.                                      ",
"                        -X*X:                     U +.).                                  ",
"                    @XG.*                             Y.1.8.                              ",
"            8 o Y.'.                                        Y.<.y.,X                      ",
"                                                                                          "
};
